<?xml version="1.0" encoding="utf-8"?>
<!DOCTYPE svg PUBLIC "-//W3C//DTD SVG 20010904//EN" "http://www.w3.org/TR/2001/REC-SVG-20010904/DTD/svg10.dtd">
<svg version="1.0" xmlns="http://www.w3.org/2000/svg" width="334px" height="512px" viewBox="0 0 334 512" preserveAspectRatio="xMidYMid meet">
 <g fill="#00aeef">
  <path d="M154.8 484.3 c-90.1 -143.3 -142.9 -251.3 -147.3 -301.3 -0.7 -7.7 0.7 -30.5 2.6 -42 11.7 -70.9 59.1 -119.3 128.2 -131 9.5 -1.6 16.8 -2.1 29 -2.1 28.9 0.1 51.8 5.2 75.2 16.8 53.8 26.8 84.5 80.9 84.5 148.9 0 15.5 -1.1 22.9 -6 39.9 -13.2 45.5 -53.5 126.4 -110 220.5 -12.5 20.9 -41.7 67.8 -43 69.3 -0.4 0.5 -6.4 -8.1 -13.2 -19z m25.7 -258.8 c19.8 -5.1 35.3 -20.1 41 -39.9 2.2 -7.4 2.1 -21 0 -29 -5.6 -21 -24.5 -37.7 -46.2 -40.8 -27 -3.9 -53 12.8 -61.4 39.2 -2.5 7.8 -2.9 20.9 -0.9 29 4.7 19.6 21.8 36.8 41.3 41.6 7.2 1.7 19.2 1.7 26.2 -0.1z"/>
 </g>
</svg>